<?xml version="1.0" encoding="utf-8"?>
<!-- Generator: Adobe Illustrator 27.5.0, SVG Export Plug-In . SVG Version: 6.00 Build 0)  -->
<svg version="1.1" xmlns="http://www.w3.org/2000/svg" xmlns:xlink="http://www.w3.org/1999/xlink" x="0px" y="0px"
	 viewBox="0 0 500 500" style="enable-background:new 0 0 500 500;" xml:space="preserve">
<g id="BACKGROUND">
	<rect x="250" style="fill:#FF006A;" width="250" height="500"/>
	<rect style="fill:#11D4CE;" width="250" height="500"/>
</g>
<g id="OBJECTS">
	<g>
		<g>
			<g>
				<defs>
					<path id="SVGID_1_" d="M120.341,427.712c-43.879,0-79.577-35.697-79.577-79.576s35.698-79.576,79.577-79.576
						c43.878,0,79.576,35.697,79.576,79.576S164.22,427.712,120.341,427.712z"/>
				</defs>
				<clipPath id="SVGID_00000121260459479920489240000008613072627216419770_">
					<use xlink:href="#SVGID_1_"  style="overflow:visible;"/>
				</clipPath>
				<g style="clip-path:url(#SVGID_00000121260459479920489240000008613072627216419770_);">
					<path style="fill:#FFFFFF;" d="M120.341,427.712c-43.879,0-79.577-35.697-79.577-79.576s35.698-79.576,79.577-79.576
						c43.878,0,79.576,35.697,79.576,79.576S164.22,427.712,120.341,427.712z M120.341,274.56c-40.57,0-73.577,33.006-73.577,73.576
						s33.006,73.576,73.577,73.576c40.57,0,73.576-33.006,73.576-73.576S160.911,274.56,120.341,274.56z"/>
				</g>
				<path style="clip-path:url(#SVGID_00000121260459479920489240000008613072627216419770_);fill:#FFFFFF;" d="M120.341,351.8
					c-28.244,0-51.14,10.573-51.14,34.704v19.02c0,0,22.35,19.62,50.391,19.62s51.889-19.62,51.889-19.62v-19.02
					C171.481,362.372,148.585,351.8,120.341,351.8z"/>
				
					<path style="clip-path:url(#SVGID_00000121260459479920489240000008613072627216419770_);fill:none;stroke:#11D4CE;stroke-width:3;stroke-linecap:round;stroke-linejoin:round;stroke-miterlimit:10;" d="
					M171.481,419.223v-32.72c0-24.131-22.896-34.704-51.14-34.704c-28.244,0-51.14,10.573-51.14,34.704v32.72"/>
			</g>
			
				<polygon style="fill:#FFFFFF;stroke:#11D4CE;stroke-width:2;stroke-linecap:round;stroke-linejoin:round;stroke-miterlimit:10;" points="
				120.341,339.648 107.261,338.715 107.261,356.101 120.341,362.409 133.422,356.101 133.422,338.715 			"/>
			<path style="fill:#FFFFFF;stroke:#11D4CE;stroke-width:2;stroke-linecap:round;stroke-linejoin:round;stroke-miterlimit:10;" d="
				M155.067,299.765c-4.778,21.827-15.813,36.512-34.658,36.512c-18.845,0-29.761-19.121-32.906-41.771
				c-2.228-16.047,1.19-26.115,14.462-33.189c11.333-6.04,32.511-6.155,40.026,7.106
				C161.064,265.26,157.821,287.185,155.067,299.765z"/>
			<path style="fill:#FFFFFF;" d="M92.265,306.437c0,21.128,8.886,39.495,28.076,39.495s28.076-18.367,28.076-39.495H92.265z"/>
			<path style="fill:#FFFFFF;" d="M149.812,302.365c-2.141-0.316-4.252,1.343-5.626,4.08c-0.7,1.394-1.388,10.365-0.482,12.326
				c0.844,1.824,2.133,3.057,3.691,3.287c3.232,0.477,6.393-3.545,7.06-8.983C155.122,307.638,153.044,302.842,149.812,302.365z"/>
			<path style="fill:#FFFFFF;stroke:#11D4CE;stroke-width:2;stroke-linecap:round;stroke-linejoin:round;stroke-miterlimit:10;" d="
				M144.878,305.249c1.339-2.01,3.125-3.151,4.933-2.884c3.232,0.477,5.311,5.272,4.643,10.71c-0.667,5.438-3.828,9.46-7.06,8.983
				c-0.245-0.036-0.506-0.101-0.737-0.185"/>
			<path style="fill:#FFFFFF;" d="M96.497,306.446c-1.374-2.737-3.485-4.397-5.626-4.08c-3.232,0.477-5.311,5.272-4.643,10.71
				c0.667,5.438,3.828,9.46,7.06,8.983c1.558-0.23,2.847-1.463,3.691-3.287C97.885,316.81,97.196,307.84,96.497,306.446z"/>
			<path style="fill:#FFFFFF;stroke:#11D4CE;stroke-width:2;stroke-linecap:round;stroke-linejoin:round;stroke-miterlimit:10;" d="
				M95.804,305.249c-1.339-2.01-3.125-3.151-4.933-2.884c-3.232,0.477-5.311,5.272-4.643,10.71c0.667,5.438,3.828,9.46,7.06,8.983
				c0.245-0.036,0.506-0.101,0.737-0.185"/>
			<path style="fill:none;stroke:#11D4CE;stroke-width:2;stroke-linecap:round;stroke-linejoin:round;stroke-miterlimit:10;" d="
				M145.379,303.967c0,0-8.994-8.33-4.506-24.912c0,0-14.527,18.11-43.46,13.332"/>
			<path style="fill:none;stroke:#11D4CE;stroke-width:2;stroke-linecap:round;stroke-linejoin:round;stroke-miterlimit:10;" d="
				M99.276,293.706c0,0-0.325,5.052-4.469,10.315"/>
			<path style="fill:none;stroke:#11D4CE;stroke-width:2;stroke-linecap:round;stroke-linejoin:round;stroke-miterlimit:10;" d="
				M140.872,279.054c0,0-11.199,15.19-24.096,17.923"/>
			<path style="fill:none;stroke:#FFFFFF;stroke-width:2;stroke-linecap:round;stroke-linejoin:round;stroke-miterlimit:10;" d="
				M141.076,270.334c0,0,2.708-4.571,8.633-4.909"/>
			<path style="fill:none;stroke:#FFFFFF;stroke-width:2;stroke-linecap:round;stroke-linejoin:round;stroke-miterlimit:10;" d="
				M141.566,270.122c0,0,2.038-4.426-1.913-8.855"/>
			<path style="fill:none;stroke:#11D4CE;stroke-width:2;stroke-linecap:round;stroke-linejoin:round;stroke-miterlimit:10;" d="
				M94.025,321.874c3.457,13.898,12.045,24.058,26.316,24.058c14.271,0,22.86-10.16,26.316-24.058"/>
		</g>
		<path style="fill:none;stroke:#11D4CE;stroke-linecap:round;stroke-linejoin:round;stroke-miterlimit:10;" d="M124.065,320.406
			c0,1.404-3.151,2.542-3.724,2.542c-0.573,0-3.724-1.138-3.724-2.542"/>
		<path style="fill:none;stroke:#11D4CE;stroke-width:1.5;stroke-linecap:round;stroke-linejoin:round;stroke-miterlimit:10;" d="
			M130.35,329.53c0,3.244-4.481,6.7-10.009,6.7c-5.528,0-10.009-3.456-10.009-6.7"/>
		<g>
			<g>
				<g>
					<circle style="fill:#11D4CE;" cx="108.251" cy="309.209" r="3.568"/>
					<circle style="fill:#FFFFFF;" cx="107.514" cy="308.718" r="1.357"/>
				</g>
				<path style="fill:#11D4CE;" d="M113.463,301.997c0,0.492-0.399,0.892-0.892,0.892h-8.639c-0.493,0-0.892-0.399-0.892-0.892l0,0
					c0-0.493,0.399-0.892,0.892-0.892h8.639C113.063,301.106,113.463,301.505,113.463,301.997L113.463,301.997z"/>
			</g>
			<g>
				<g>
					<circle style="fill:#11D4CE;" cx="132.431" cy="309.209" r="3.568"/>
					<circle style="fill:#FFFFFF;" cx="131.694" cy="308.718" r="1.357"/>
				</g>
				<path style="fill:#11D4CE;" d="M137.642,301.997c0,0.492-0.399,0.892-0.892,0.892h-8.639c-0.493,0-0.892-0.399-0.892-0.892l0,0
					c0-0.493,0.399-0.892,0.892-0.892h8.639C137.243,301.106,137.642,301.505,137.642,301.997L137.642,301.997z"/>
			</g>
		</g>
	</g>
	<g>
		<g>
			<defs>
				<path id="SVGID_00000183243648068497974270000003474846659332759962_" d="M375.087,420.877
					c-43.879,0-79.576-35.697-79.576-79.576s35.697-79.576,79.576-79.576s79.576,35.697,79.576,79.576
					S418.966,420.877,375.087,420.877z"/>
			</defs>
			<clipPath id="SVGID_00000174567344988554940940000014097604408554538938_">
				<use xlink:href="#SVGID_00000183243648068497974270000003474846659332759962_"  style="overflow:visible;"/>
			</clipPath>
			<g style="clip-path:url(#SVGID_00000174567344988554940940000014097604408554538938_);">
				<path style="fill:#FFFFFF;" d="M375.087,420.877c-43.879,0-79.576-35.697-79.576-79.576s35.697-79.576,79.576-79.576
					s79.576,35.697,79.576,79.576S418.966,420.877,375.087,420.877z M375.087,267.725c-40.57,0-73.576,33.006-73.576,73.576
					s33.006,73.576,73.576,73.576s73.576-33.006,73.576-73.576S415.657,267.725,375.087,267.725z"/>
			</g>
			<path style="clip-path:url(#SVGID_00000174567344988554940940000014097604408554538938_);fill:#FFFFFF;" d="M375.087,348.418
				c-24.185,0-43.791,10.573-43.791,34.704v20.884c0,0,19.138,14.303,43.149,14.303c24.012,0,44.432-14.303,44.432-14.303v-20.884
				C418.878,358.991,399.272,348.418,375.087,348.418z"/>
			
				<path style="clip-path:url(#SVGID_00000174567344988554940940000014097604408554538938_);fill:none;stroke:#FF006A;stroke-width:3;stroke-linecap:round;stroke-linejoin:round;stroke-miterlimit:10;" d="
				M418.878,415.055v-31.933c0-24.131-19.606-34.704-43.791-34.704s-43.791,10.573-43.791,34.704v31.933"/>
		</g>
		<path style="fill:#FFFFFF;stroke:#FF006A;stroke-width:2;stroke-linecap:round;stroke-linejoin:round;stroke-miterlimit:10;" d="
			M415.184,298.261c0-27.543-3.757-37.984-21.774-34.145c-4.516-5.275-14.366-11.508-26.285-9.42
			c-19.316,3.384-32.135,13.182-32.135,43.565v37.073c0,0,13.376,11.312,40.097,11.312c26.721,0,40.097-11.312,40.097-11.312
			V298.261z"/>
		<path style="fill:#FFFFFF;stroke:#FF006A;stroke-width:2;stroke-linecap:round;stroke-linejoin:round;stroke-miterlimit:10;" d="
			M375.087,336.266l-11.62-0.932v17.386c0,0,4.197,6.307,11.62,6.307c7.423,0,11.62-6.307,11.62-6.307v-17.386L375.087,336.266z"/>
		<path style="fill:#FFFFFF;" d="M347.003,300.836c0,22.78,16.838,42.583,28.076,42.583s28.076-19.803,28.076-42.583
			c0,0,4.212-32.956-28-32.956C342.943,267.88,347.003,300.836,347.003,300.836z"/>
		<path style="fill:none;stroke:#FF006A;stroke-width:2;stroke-linecap:round;stroke-linejoin:round;stroke-miterlimit:10;" d="
			M389.252,279.989c0,0-5.851,17.01-16.505,21.331"/>
		<g>
			<g>
				<path style="fill:#FFFFFF;" d="M346.795,300.524c2.099-0.28,4.168,1.19,5.515,3.617c0.686,1.236,1.361,9.187,0.472,10.926
					c-0.827,1.617-2.091,2.71-3.618,2.914c-3.168,0.423-6.267-3.142-6.921-7.962C341.589,305.197,343.627,300.947,346.795,300.524z"
					/>
				<path style="fill:#FFFFFF;" d="M346.798,300.523c2.099-0.279,4.167,1.192,5.514,3.619c0.686,1.236,1.358,9.188,0.468,10.926
					c-0.828,1.617-2.092,2.709-3.619,2.912c-3.168,0.422-6.265-3.144-6.918-7.965C341.59,305.195,343.63,300.945,346.798,300.523z"
					/>
				<path style="fill:none;stroke:#FF006A;stroke-width:2;stroke-linecap:round;stroke-linejoin:round;stroke-miterlimit:10;" d="
					M350.045,317.733c-0.283,0.109-0.576,0.206-0.881,0.247c-3.168,0.423-6.267-3.142-6.921-7.962
					c-0.654-4.82,1.383-9.071,4.551-9.494"/>
			</g>
			<g>
				<path style="fill:#FFFFFF;" d="M403.38,300.524c-2.099-0.28-4.168,1.19-5.515,3.617c-0.686,1.236-1.361,9.187-0.472,10.926
					c0.827,1.617,2.091,2.71,3.618,2.914c3.168,0.423,6.267-3.142,6.921-7.962C408.585,305.197,406.548,300.947,403.38,300.524z"/>
				<path style="fill:#FFFFFF;" d="M403.376,300.523c-2.099-0.279-4.167,1.192-5.514,3.619c-0.686,1.236-1.358,9.188-0.468,10.926
					c0.827,1.617,2.092,2.709,3.619,2.912c3.168,0.422,6.266-3.144,6.918-7.965C408.584,305.195,406.544,300.945,403.376,300.523z"
					/>
				<path style="fill:none;stroke:#FF006A;stroke-width:2;stroke-linecap:round;stroke-linejoin:round;stroke-miterlimit:10;" d="
					M400.123,317.731c0.287,0.111,0.578,0.208,0.888,0.249c3.168,0.423,6.267-3.142,6.921-7.962c0.654-4.82-1.384-9.071-4.552-9.494
					"/>
			</g>
		</g>
		<path style="fill:none;stroke:#FF006A;stroke-width:2;stroke-linecap:round;stroke-linejoin:round;stroke-miterlimit:10;" d="
			M350.045,317.733c5.03,14.772,17.278,25.685,25.042,25.685s20.006-10.915,25.036-25.688"/>
		<path style="fill:#FFFFFF;" d="M401.437,299.338v7.076c0,0,2.215,2.132,8.625,2.132v-8.625L401.437,299.338z"/>
		<g>
			<g>
				<path style="fill:#FF006A;" d="M390.853,309.269c0,1.872-1.518,3.39-3.39,3.39s-3.39-1.518-3.39-3.39
					c0-1.872,1.518-3.39,3.39-3.39S390.853,307.397,390.853,309.269z"/>
				<path style="fill:#FFFFFF;" d="M388.012,308.546c0,0.674-0.546,1.22-1.22,1.22s-1.22-0.546-1.22-1.22
					c0-0.674,0.546-1.22,1.22-1.22S388.012,307.872,388.012,308.546z"/>
			</g>
			<g>
				<path style="fill:#FF006A;" d="M366.101,309.269c0,1.872-1.518,3.39-3.39,3.39c-1.872,0-3.39-1.518-3.39-3.39
					c0-1.872,1.518-3.39,3.39-3.39C364.583,305.879,366.101,307.397,366.101,309.269z"/>
				<path style="fill:#FFFFFF;" d="M363.26,308.546c0,0.674-0.546,1.22-1.221,1.22c-0.674,0-1.22-0.546-1.22-1.22
					c0-0.674,0.546-1.22,1.22-1.22C362.714,307.325,363.26,307.872,363.26,308.546z"/>
			</g>
		</g>
		<g>
			<path style="fill:none;stroke:#FF006A;stroke-linecap:round;stroke-linejoin:round;stroke-miterlimit:10;" d="M357.283,304.641
				c0,0,4.379-5.493,11.299-0.268"/>
			<path style="fill:none;stroke:#FF006A;stroke-linecap:round;stroke-linejoin:round;stroke-miterlimit:10;" d="M392.891,304.641
				c0,0-4.379-5.493-11.299-0.268"/>
		</g>
		<path style="fill:none;stroke:#FF006A;stroke-linecap:round;stroke-linejoin:round;stroke-miterlimit:10;" d="M377.987,317.44
			c0,1.174-2.453,2.126-2.9,2.126c-0.446,0-2.9-0.952-2.9-2.126"/>
		<path style="fill:none;stroke:#FF006A;stroke-width:1.5;stroke-linecap:round;stroke-linejoin:round;stroke-miterlimit:10;" d="
			M382.126,327.209c0,2.08-3.151,4.296-7.039,4.296c-3.887,0-7.039-2.216-7.039-4.296"/>
		<polygon style="fill:#FF006A;" points="401.425,343.071 401.612,331.505 405.456,341.377 		"/>
		<polygon style="fill:#FF006A;" points="349.033,342.207 349.033,327.078 346.265,341.494 		"/>
		<path style="fill:#FFFFFF;" d="M341.192,306.332c0,0,10.688,2.457,23.622-5.372l0.556-3.105h-24.179V306.332z"/>
		<path style="fill:none;stroke:#FF006A;stroke-width:2;stroke-linecap:round;stroke-linejoin:round;stroke-miterlimit:10;" d="
			M411.281,309.075c-24.389-0.199-22.029-29.086-22.029-29.086s-23.881,31.01-49.876,26.455"/>
	</g>
	<g>
		<g style="opacity:0.4;">
			<path style="fill:#FFFFFF;" d="M167.272,132.328c21.203,21.203,21.203,55.58,0,76.784c-21.203,21.203-55.581,21.203-76.784,0
				c-19.309-19.309-21.031-49.541-5.173-70.802l-20.509-20.509v8.262c0,3.815-3.092,6.907-6.907,6.907s-6.907-3.092-6.907-6.907
				v-25.214c-0.002-0.091-0.002-0.181,0-0.272v-0.58c-0.003-0.086-0.013-0.17-0.013-0.257c0-1.911,0.776-3.64,2.03-4.89
				c1.25-1.254,2.98-2.03,4.89-2.03c0.087,0,0.171,0.01,0.257,0.013h0.58c0.091-0.002,0.181-0.002,0.272,0h25.214
				c3.815,0,6.907,3.092,6.907,6.907c0,3.815-3.092,6.907-6.907,6.907h-8.262l20.509,20.508
				C117.731,111.297,147.964,113.019,167.272,132.328z M100.865,198.736c15.473,15.473,40.559,15.473,56.031,0
				c15.473-15.473,15.473-40.559,0-56.031c-15.473-15.473-40.559-15.473-56.031,0C85.392,158.177,85.392,183.263,100.865,198.736z"
				/>
		</g>
		<g>
			<path style="fill:#FFFFFF;" d="M163.272,128.328c21.203,21.203,21.203,55.58,0,76.784c-21.203,21.203-55.581,21.203-76.784,0
				c-19.309-19.309-21.031-49.541-5.173-70.802l-20.509-20.509v8.262c0,3.815-3.092,6.907-6.907,6.907
				c-3.815,0-6.907-3.092-6.907-6.907V96.849c-0.002-0.091-0.002-0.181,0-0.272v-0.58c-0.003-0.086-0.013-0.17-0.013-0.257
				c0-1.911,0.776-3.64,2.03-4.89c1.25-1.254,2.98-2.03,4.89-2.03c0.087,0,0.171,0.01,0.257,0.013h0.58
				c0.091-0.002,0.181-0.002,0.272,0h25.214c3.815,0,6.907,3.092,6.907,6.907c0,3.815-3.092,6.907-6.907,6.907h-8.262l20.509,20.508
				C113.731,107.297,143.964,109.019,163.272,128.328z M96.865,194.736c15.473,15.473,40.559,15.473,56.031,0
				c15.473-15.473,15.473-40.559,0-56.031c-15.473-15.473-40.559-15.473-56.031,0C81.392,154.177,81.392,179.263,96.865,194.736z"/>
		</g>
	</g>
	<g>
		<g style="opacity:0.4;">
			<path style="fill:#FFFFFF;" d="M324.706,132.618c0-29.986,24.308-54.294,54.294-54.294s54.294,24.308,54.294,54.294
				c0,27.307-20.16,49.902-46.407,53.722v18.25h12.29c4.356,0,7.887,3.531,7.887,7.887c0,4.356-3.531,7.887-7.887,7.887h-12.29
				v11.258c0,4.356-3.531,7.887-7.887,7.887c-4.356,0-7.887-3.531-7.887-7.887v-11.258h-12.289c-4.356,0-7.887-3.531-7.887-7.887
				c0-4.356,3.531-7.887,7.887-7.887h12.289v-18.25C344.865,182.52,324.706,159.925,324.706,132.618z M418.62,132.618
				c0-21.882-17.739-39.62-39.62-39.62c-21.882,0-39.62,17.738-39.62,39.62c0,21.882,17.739,39.62,39.62,39.62
				C400.882,172.238,418.62,154.5,418.62,132.618z"/>
		</g>
		<g>
			<path style="fill:#FFFFFF;" d="M320.706,128.618c0-29.986,24.308-54.294,54.294-54.294s54.294,24.308,54.294,54.294
				c0,27.307-20.16,49.902-46.407,53.722v18.25h12.29c4.356,0,7.887,3.531,7.887,7.887c0,4.356-3.531,7.887-7.887,7.887h-12.29
				v11.258c0,4.356-3.531,7.887-7.887,7.887c-4.356,0-7.887-3.531-7.887-7.887v-11.258h-12.289c-4.356,0-7.887-3.531-7.887-7.887
				c0-4.356,3.531-7.887,7.887-7.887h12.289v-18.25C340.865,178.52,320.706,155.925,320.706,128.618z M414.62,128.618
				c0-21.882-17.739-39.62-39.62-39.62c-21.882,0-39.62,17.738-39.62,39.62c0,21.882,17.739,39.62,39.62,39.62
				C396.882,168.238,414.62,150.5,414.62,128.618z"/>
		</g>
	</g>
</g>
</svg>
