<?xml version="1.0" standalone="no"?>
<!DOCTYPE svg PUBLIC "-//W3C//DTD SVG 20010904//EN"
 "http://www.w3.org/TR/2001/REC-SVG-20010904/DTD/svg10.dtd">
<svg version="1.0" xmlns="http://www.w3.org/2000/svg"
 width="512.000000pt" height="512.000000pt" viewBox="0 0 512.000000 512.000000"
 preserveAspectRatio="xMidYMid meet">
<metadata>
Created by potrace 1.16, written by Peter Selinger 2001-2019
</metadata>
<g transform="translate(0.000000,512.000000) scale(0.100000,-0.100000)"
fill="#000000" stroke="none">
<path d="M378 4742 l-298 -297 0 -45 c0 -44 2 -46 138 -182 131 -131 140 -138
178 -138 22 0 50 7 62 16 l22 15 0 -1551 0 -1551 -22 15 c-12 9 -40 16 -62 16
-38 0 -47 -7 -178 -138 -136 -136 -138 -138 -138 -182 l0 -45 298 -297 297
-298 45 0 45 0 297 298 298 297 0 45 c0 44 -2 46 -138 182 -131 131 -140 138
-178 138 -22 0 -50 -7 -62 -16 l-22 -15 0 1551 0 1551 22 -15 c12 -9 40 -16
62 -16 38 0 47 7 178 138 136 136 138 138 138 182 l0 45 -298 297 -297 298
-45 0 -45 0 -297 -298z m567 -122 l220 -220 -62 -62 -62 -62 -65 62 c-74 71
-109 80 -151 37 l-25 -24 0 -1791 0 -1791 25 -24 c42 -43 77 -34 151 37 l65
62 62 -62 62 -62 -223 -223 -222 -222 -222 222 -223 223 62 62 62 62 65 -62
c74 -71 109 -80 151 -37 l25 24 0 1791 0 1791 -25 24 c-42 43 -77 34 -151 -37
l-65 -62 -62 62 -62 62 220 220 c121 121 222 220 225 220 3 0 104 -99 225
-220z"/>
<path d="M2008 5021 c-145 -47 -269 -174 -312 -320 -12 -42 -16 -102 -16 -265
l0 -211 -47 -35 c-26 -19 -61 -57 -78 -84 -26 -42 -30 -61 -33 -132 -4 -93 12
-144 67 -206 53 -61 121 -88 217 -88 l82 0 30 -52 c17 -29 48 -72 70 -95 l40
-43 -42 -11 c-98 -26 -191 -62 -239 -93 -63 -40 -140 -124 -172 -186 -56 -111
-56 -104 -53 -776 l3 -619 27 -55 c51 -104 143 -186 241 -215 l42 -12 3 -492
2 -492 -50 -49 c-77 -75 -104 -142 -108 -267 -6 -160 -88 -143 718 -143 806 0
724 -17 718 143 -4 125 -31 192 -108 267 l-50 49 2 492 3 492 42 12 c98 29
190 111 241 215 l27 55 3 619 c3 672 3 665 -53 776 -31 60 -106 144 -169 186
-46 31 -140 67 -242 94 l-42 10 40 43 c22 23 53 66 70 95 l30 52 82 0 c96 0
164 27 217 88 55 62 71 113 67 206 -3 71 -7 90 -33 132 -17 27 -52 65 -78 84
l-47 35 0 162 c0 140 -3 170 -21 218 -39 106 -162 195 -267 195 -36 0 -38 2
-55 50 -24 68 -99 142 -172 169 -51 19 -76 21 -298 20 -206 0 -250 -3 -299
-18z m792 -981 c0 -181 -10 -235 -56 -319 -95 -175 -326 -248 -510 -162 -89
41 -147 99 -192 189 l-37 76 -4 168 -3 168 133 0 c85 0 158 6 199 16 93 22
200 76 262 133 l53 50 78 -77 77 -77 0 -165z m-960 -81 l0 -122 -42 6 c-55 7
-90 35 -107 84 -13 36 -12 43 5 79 21 42 70 74 117 74 l27 0 0 -121z m1226 96
c14 -9 33 -33 41 -53 30 -72 -20 -148 -105 -159 l-42 -6 0 123 0 123 40 -6
c23 -3 52 -13 66 -22z m-666 -690 c47 0 103 4 124 8 l39 8 -6 -41 c-10 -75
-82 -140 -157 -140 -75 0 -147 65 -157 140 l-6 41 39 -8 c21 -4 77 -8 124 -8z
m-307 -95 c23 -80 85 -156 162 -195 52 -26 69 -30 145 -30 76 0 93 4 145 30
75 39 138 114 161 193 9 31 17 58 18 59 6 7 187 -52 222 -73 58 -33 129 -115
150 -172 12 -34 18 -89 22 -204 l4 -158 -81 0 -81 0 0 80 0 80 -80 0 -80 0 0
-440 0 -440 -400 0 -400 0 0 440 0 440 -80 0 -80 0 0 -80 0 -80 -81 0 -81 0 4
158 c3 147 5 161 31 217 30 64 81 123 136 158 27 16 192 74 222 76 3 1 13 -26
22 -59z m-253 -1140 c0 -236 -2 -430 -5 -430 -15 0 -63 31 -86 57 -64 68 -64
65 -67 451 l-3 352 81 0 80 0 0 -430z m1278 78 c-3 -386 -3 -383 -67 -451 -23
-26 -71 -57 -86 -57 -3 0 -5 194 -5 430 l0 430 80 0 81 0 -3 -352z m-318
-1008 l0 -640 -160 0 -160 0 0 480 0 480 -80 0 -80 0 0 -480 0 -480 -120 0
-120 0 0 640 0 640 360 0 360 0 0 -640z m-480 -880 l0 -80 -235 0 c-197 0
-235 2 -235 14 0 30 22 72 58 109 l36 37 188 0 188 0 0 -80z m572 43 c36 -37
58 -79 58 -109 0 -12 -38 -14 -235 -14 l-235 0 0 80 0 80 188 0 188 0 36 -37z"/>
<path d="M3040 4960 l0 -80 241 -2 242 -3 12 -42 c29 -98 111 -190 215 -241
54 -26 59 -27 273 -30 l217 -3 0 -2000 0 -1999 -340 0 c-327 0 -341 -1 -360
-20 -19 -19 -20 -33 -20 -220 0 -187 1 -201 20 -220 20 -20 33 -20 740 -20
707 0 720 0 740 20 20 20 20 33 20 2460 0 2427 0 2440 -20 2460 -20 20 -33 20
-1000 20 l-980 0 0 -80z m1840 -2400 l0 -2000 -240 0 -240 0 0 80 0 80 80 0
80 0 0 80 0 80 -80 0 -80 0 0 80 0 80 160 0 160 0 0 80 0 80 -160 0 -160 0 0
80 0 80 80 0 80 0 0 80 0 80 -80 0 -80 0 0 80 0 80 160 0 160 0 0 80 0 80
-160 0 -160 0 0 80 0 80 80 0 80 0 0 80 0 80 -80 0 -80 0 0 80 0 80 160 0 160
0 0 80 0 80 -160 0 -160 0 0 80 0 80 80 0 80 0 0 80 0 80 -80 0 -80 0 0 80 0
80 160 0 160 0 0 80 0 80 -160 0 -160 0 0 80 0 80 80 0 80 0 0 80 0 80 -80 0
-80 0 0 80 0 80 160 0 160 0 0 80 0 80 -160 0 -160 0 0 80 0 80 80 0 80 0 0
80 0 80 -80 0 -80 0 0 80 0 80 160 0 160 0 0 80 0 80 -160 0 -160 0 0 80 0 80
240 0 240 0 0 -2000z"/>
</g>
</svg>
